<svg viewBox="0 0 511 511.99987" xmlns="http://www.w3.org/2000/svg"><path d="m161.136719 266.4375-142.863281 143.167969c-23.699219 23.394531-23.699219 61.183593 0 84.578125 23.390624 23.695312 61.183593 23.695312 84.578124 0l143.167969-142.863282zm0 0" fill="#ff4d4d"/><path d="m246.019531 351.320312-143.167969 142.863282c-23.394531 23.695312-61.1875 23.695312-84.578124 0l185.453124-185.15625zm0 0" fill="#ff001e"/><path d="m512.457031 36.589844-35.394531 91.78125-25.195312-25.195313-223.84375 223.546875-42.289063-42.289062 223.546875-223.847656-25.195312-25.195313 91.777343-35.390625zm0 0" fill="#c5d3dd"/><path d="m512.457031 36.589844-35.394531 91.78125-25.195312-25.195313-223.84375 223.546875-20.996094-20.996094 287.132812-287.429687zm0 0" fill="#b6c4cf"/><path d="m161.136719 330.023438-111.074219 111.375 10.5 10.496093 10.496094 10.496094 111.375-111.070313zm0 0" fill="#ff001e"/><path d="m277.8125 361.816406-21.296875 21.292969-127.171875-127.167969 21.296875-21.296875zm0 0" fill="#6e6e6e"/><path d="m401.480469 358.617188-20.996094 21.292968-21.292969 20.996094-268.820312-268.59375 21.296875-21.292969 21.292969-21.296875zm0 0" fill="#d9e7ec"/><path d="m380.484375 379.910156-21.292969 20.996094-268.820312-268.59375 21.296875-21.292969zm0 0" fill="#c5d3dd"/><path d="m153.957031 153.308594c-35.089843 35.089844-92.078125 35.089844-127.167969 0-27.292968-26.996094-33.59375-68.085938-17.398437-101.976563 0 0 53.390625 53.386719 59.6875 59.6875l21.296875-21.296875 21.292969-21.296875c-.296875 0-53.386719-53.085937-59.683594-59.683593 33.890625-16.195313 74.980469-9.597657 101.976563 17.394531 35.089843 35.09375 35.089843 92.078125-.003907 127.171875zm0 0" fill="#d9e7ec"/><path d="m90.371094 89.722656 63.585937 63.585938c-35.089843 35.089844-92.078125 35.089844-127.167969 0-27.292968-26.996094-33.59375-68.085938-17.398437-101.976563 0 0 53.390625 53.386719 59.6875 59.6875zm0 0" fill="#c5d3dd"/><path d="m503.757812 460.59375c-6.597656-6.300781-59.6875-59.386719-59.6875-59.6875l-21.292968 21.296875-21.296875 21.292969c6.300781 6.300781 59.6875 59.6875 59.6875 59.6875-33.894531 16.195312-74.984375 9.894531-101.976563-17.394532-35.09375-35.09375-35.09375-92.082031 0-127.171874 35.089844-35.09375 92.078125-35.09375 127.171875 0 26.992188 26.992187 33.589844 68.082031 17.394531 101.976562zm0 0" fill="#d9e7ec"/><path d="m461.167969 503.183594c-33.894531 16.195312-74.984375 9.894531-101.976563-17.394532-35.09375-35.09375-35.09375-92.082031 0-127.171874l63.585938 63.585937-21.296875 21.292969c6.300781 6.300781 59.6875 59.6875 59.6875 59.6875zm0 0" fill="#c5d3dd"/><path d="m171.933594 340.820312 10.5 10.5-111.375 111.070313-10.496094-10.496094zm0 0" fill="#b50000"/><path d="m192.925781 319.523438 21.296875-21.292969 63.585938 63.582031-21.296875 21.296875zm0 0" fill="#5a5a5a"/></svg>